<?xml version="1.0" standalone="no"?>
<!DOCTYPE svg PUBLIC "-//W3C//DTD SVG 20010904//EN"
 "http://www.w3.org/TR/2001/REC-SVG-20010904/DTD/svg10.dtd">
<svg version="1.0" xmlns="http://www.w3.org/2000/svg"
 width="500.000000pt" height="500.000000pt" viewBox="0 0 500.000000 500.000000"
 preserveAspectRatio="xMidYMid meet">
<metadata>
Created by potrace 1.11, written by Peter Selinger 2001-2013
</metadata>
<g transform="translate(0.000000,500.000000) scale(0.100000,-0.100000)"
fill="#000000" stroke="none">
<path d="M2367 4824 c-1 -1 -37 -4 -80 -8 -304 -24 -592 -115 -789 -247 -130
-87 -247 -231 -294 -359 -90 -250 -18 -553 176 -748 100 -99 129 -118 558
-359 232 -130 328 -183 333 -183 4 0 7 42 7 93 0 50 0 97 1 103 1 8 53 11 179
10 159 -1 303 6 372 18 14 3 41 7 60 10 74 11 147 27 200 43 30 9 57 17 60 18
35 8 134 47 208 82 348 168 514 447 469 790 -29 219 -201 430 -455 558 -236
118 -507 174 -865 179 -76 1 -139 1 -140 0z"/>
<path d="M2775 2843 c-11 -2 -41 -19 -67 -36 -60 -40 -83 -89 -83 -177 0 -56
4 -71 30 -110 112 -166 372 -99 389 100 12 143 -125 256 -269 223z"/>
<path d="M2672 2300 c-182 -48 -304 -158 -403 -362 -13 -27 -26 -48 -30 -48
-4 0 -48 45 -99 99 -51 55 -103 102 -115 105 -59 15 -120 -41 -105 -96 10 -33
276 -375 304 -390 47 -25 118 -5 154 45 13 18 40 55 60 82 20 28 44 62 53 75
16 24 16 23 18 -40 1 -36 4 -121 6 -190 2 -69 6 -217 10 -330 3 -113 8 -259
10 -325 2 -66 7 -212 11 -325 3 -113 7 -236 8 -275 1 -38 7 -79 13 -90 39 -72
137 -80 183 -15 21 29 23 48 35 320 18 393 27 555 31 559 2 2 4 -29 5 -70 1
-41 2 -99 4 -129 4 -85 14 -293 20 -415 11 -219 13 -235 30 -261 42 -64 138
-64 180 0 17 26 18 44 41 836 3 113 7 243 9 290 2 47 4 141 5 209 1 68 5 119
10 115 4 -5 15 -43 25 -84 48 -218 78 -327 93 -342 9 -9 32 -19 49 -23 28 -6
38 -2 64 24 l31 31 -7 83 c-4 45 -8 89 -10 97 -2 8 -6 49 -9 90 -4 41 -9 91
-11 110 -2 19 -7 64 -10 100 -4 36 -8 79 -10 95 -2 17 -6 59 -10 94 -16 144
-74 231 -203 299 -123 65 -306 87 -440 52z"/>
</g>
</svg>
